<?xml version="1.0" encoding="utf-8"?>
<!-- Generator: Adobe Illustrator 19.0.0, SVG Export Plug-In . SVG Version: 6.00 Build 0)  -->
<svg version="1.1" id="图层_1" xmlns="http://www.w3.org/2000/svg" xmlns:xlink="http://www.w3.org/1999/xlink" x="0px" y="0px"
	 viewBox="0 0 500 500" style="enable-background:new 0 0 500 500;" xml:space="preserve">
<style type="text/css">
	.st0{fill:#FFFFFF;}
</style>
<g id="XMLID_1_">
	<path id="XMLID_16_" class="st0" d="M161,282.6c-13.9,0-25.1,11.3-25.1,25.1c0,13.9,11.3,25.1,25.1,25.1s25.1-11.3,25.1-25.1
		C186.1,293.9,174.9,282.6,161,282.6z M161.7,318.5c-6.1,0-11-4.9-11-11c0-6.1,4.9-11,11-11c6.1,0,11,4.9,11,11
		C172.7,313.5,167.8,318.5,161.7,318.5z"/>
	<path id="XMLID_19_" class="st0" d="M313.8,282.6c-13.9,0-25.1,11.3-25.1,25.1c0,13.9,11.3,25.1,25.1,25.1s25.1-11.3,25.1-25.1
		C339,293.9,327.7,282.6,313.8,282.6z M314.5,318.5c-6.1,0-11-4.9-11-11c0-6.1,4.9-11,11-11c6.1,0,11,4.9,11,11
		C325.5,313.5,320.6,318.5,314.5,318.5z"/>
	<path id="XMLID_25_" class="st0" d="M365.8,176.2c-8.2-1.5-236.4,0-236.4,0s-4.5-0.2-8.9,2.8c-7.3,5-7.4,10-8.6,13.5
		s-10.2,31.5-10.9,40.8s0,53.5,0,61.8s7.5,12.2,12.8,12.8c0.8,0.1,6.6,0.1,16,0.2c0-0.1,0-0.1,0-0.2c0-17.3,14-31.3,31.3-31.3
		s31.3,14,31.3,31.3c0,0.1,0,0.1,0,0.2c28.8,0,61.4,0,90.4-0.1c0,0,0-0.1,0-0.1c0-17.3,13.9-31.3,31.1-31.3s31.1,14,31.1,31.3
		c0,0,0,0,0,0c10,0,16.4,0,18,0c11,0,14-9.5,14-20.2s0-83.5,0-93.5S374,177.8,365.8,176.2z M162,244h-36.7l7.6-16.1l0,0
		c0,0,0,0,0-0.1c1.2-2.5,0.1-5.4-2.3-6.5c-2.5-1.2-5.4-0.1-6.5,2.3c0,0,0,0.1,0,0.1l0,0l-9.6,20.1c-1.2-0.7-6.3-4.5-5.3-11
		c1.8-11,7-30.7,10.5-39.2s11.8-7.7,11.8-7.7H162V244z M231,244h-58v-58h58V244z M300,244h-58v-58h58V244z M368,195.3V244h-57v-58
		h46.8c0,0,3.9-0.9,7.9,2.9C368.7,191.8,368,195.3,368,195.3z"/>
</g>
</svg>
